<svg width="458" height="53" viewBox="0 0 458 53" fill="none" xmlns="http://www.w3.org/2000/svg">
<g clip-path="url(#clip0_28_24)">
<path d="M3.402 46V5.5H35.64C44.442 5.5 49.194 11.17 49.194 18.946C49.194 27.694 43.254 32.716 35.64 32.716H16.632V46H3.402ZM29.268 23.536C33.642 23.536 35.64 22.348 35.64 19.108C35.64 15.814 33.534 14.68 28.89 14.68H16.632V23.536H29.268ZM78.0621 47.242C61.5381 47.242 52.1961 38.872 52.1961 25.75C52.1961 12.682 61.5381 4.312 78.0621 4.312C94.5861 4.312 103.928 12.682 103.928 25.75C103.928 38.872 94.5861 47.242 78.0621 47.242ZM78.0621 37.09C85.5141 37.09 89.7801 32.878 89.7801 25.75C89.7801 18.676 85.5141 14.464 78.1161 14.356C70.5561 14.248 66.3441 18.46 66.3441 25.75C66.3441 32.878 70.5561 37.09 78.0621 37.09ZM109.082 46V5.5H140.996C149.798 5.5 155.09 10.792 155.09 18.73C155.09 26.182 149.798 30.232 141.86 30.772L156.008 46H139.916L127.334 31.15H122.312V46H109.082ZM135.164 23.104C139.538 23.104 141.59 21.916 141.59 18.838C141.59 15.652 139.43 14.518 134.786 14.518H122.312V23.104H135.164ZM158.777 15.868V5.5H202.949V15.868H187.505V46H174.275V15.868H158.777ZM208.381 46V5.5H221.611V46H208.381ZM228.525 46V5.5H267.513V14.95H241.755V22.132H264.921V31.15H241.755V46H228.525ZM272.769 46V5.5H285.999V35.902H311.379V46H272.769ZM339.466 47.242C322.942 47.242 313.6 38.872 313.6 25.75C313.6 12.682 322.942 4.312 339.466 4.312C355.99 4.312 365.332 12.682 365.332 25.75C365.332 38.872 355.99 47.242 339.466 47.242ZM339.466 37.09C346.918 37.09 351.184 32.878 351.184 25.75C351.184 18.676 346.918 14.464 339.52 14.356C331.96 14.248 327.748 18.46 327.748 25.75C327.748 32.878 331.96 37.09 339.466 37.09ZM365.734 5.5H379.558L388.036 32.122L395.596 5.5H409.15L416.818 32.23L425.35 5.5H438.688L424.594 46H409.636L402.076 20.134L394.57 46H379.828L365.734 5.5ZM442.082 35.524H454.34V46H442.082V35.524Z" fill="#050505"/>
</g>
<defs>
<clipPath id="clip0_28_24">
<rect width="458" height="53" fill="white"/>
</clipPath>
</defs>
</svg>
